# xmcd
#
# Track frame offsets:
#	150
#	22235
#	38357
#	67827
#	82760
#	100412
#	121777
#	135010
#	161890
#	178732
#	206470
#	221592
#	241037
#	253867
#	280520
#	298177
#	319947
#
# Disc length: 4461 seconds
#
# Revision: 0
# Processed by: cddbd v1.4PL0 Copyright (c) Steve Scherf et al.
# Submitted via: dBpowerAMP V4.0
#
DISCID=e6116b11
DTITLE=The Holmes Brothers - Righteous! The Essential Collection
DYEAR=2002
DGENRE=Blues
TTITLE0=Got Myself Together
TTITLE1=Promised Land
TTITLE2=When Something Is Wrong With My Baby
TTITLE3=Fannie Mae
TTITLE4=The New And Improved Me
TTITLE5=I Surrender All
TTITLE6=Train Song
TTITLE7=None But The Righteous
TTITLE8=Dashboard Bar
TTITLE9=Don't Spare Your Sword
TTITLE10=I've Been A Loser
TTITLE11=Please Don't Hurt Me
TTITLE12=The Final Round
TTITLE13=There Goes My Everything
TTITLE14=There's A Train
TTITLE15=And I Love Her
TTITLE16=Walk In The Light
EXTD=
EXTT0=
EXTT1=
EXTT2=
EXTT3=
EXTT4=
EXTT5=
EXTT6=
EXTT7=
EXTT8=
EXTT9=
EXTT10=
EXTT11=
EXTT12=
EXTT13=
EXTT14=
EXTT15=
EXTT16=
PLAYORDER=
